<?xml version="1.0" standalone="no"?>
<!DOCTYPE svg PUBLIC "-//W3C//DTD SVG 20010904//EN"
 "http://www.w3.org/TR/2001/REC-SVG-20010904/DTD/svg10.dtd">
<svg version="1.0" xmlns="http://www.w3.org/2000/svg"
 width="1600.000000pt" height="963.000000pt" viewBox="0 0 1600.000000 963.000000"
 preserveAspectRatio="xMidYMid meet">

<g transform="translate(0.000000,963.000000) scale(0.100000,-0.100000)"
fill="#000000" stroke="none">
<path d="M2955 7023 c-363 -25 -707 -278 -900 -662 -116 -231 -184 -575 -171
-861 19 -432 157 -759 530 -1254 72 -96 96 -135 92 -151 -3 -11 -35 -54 -70
-95 -79 -90 -87 -128 -35 -159 17 -11 47 -22 65 -26 19 -3 34 -9 34 -13 0 -8
92 -15 202 -16 77 -1 105 16 94 56 -10 39 -63 119 -131 198 -36 41 -65 77 -64
80 0 3 61 43 135 90 423 266 738 597 928 975 143 286 206 538 206 827 0 323
-84 573 -253 754 -168 181 -409 274 -662 257z m250 -78 c141 -37 270 -110 361
-207 156 -162 250 -431 242 -688 -3 -98 -4 -105 -24 -108 -12 -2 -29 5 -39 15
-14 14 -38 18 -123 19 -112 2 -188 24 -178 51 4 8 1 11 -5 7 -12 -7 -152 36
-157 49 -2 4 -21 7 -43 7 -21 0 -39 5 -39 10 0 6 -8 10 -18 10 -10 0 -44 14
-76 31 -48 26 -60 29 -68 18 -7 -10 -7 -8 -3 9 6 20 3 22 -27 22 -18 0 -42 7
-52 15 -11 8 -38 15 -60 15 -28 0 -36 3 -27 9 11 7 8 11 -10 17 -13 4 -32 7
-42 5 -9 -1 -25 5 -34 14 -15 15 -13 16 21 10 39 -8 52 9 16 20 -11 3 -20 11
-20 16 0 5 -9 9 -20 9 -10 0 -23 8 -28 17 -9 15 -43 36 -102 63 -66 30 -76 37
-85 58 -5 12 -15 22 -21 22 -15 0 -64 43 -64 57 0 6 -6 13 -14 16 -8 3 -17 19
-21 36 -4 17 -12 34 -19 38 -16 10 -27 51 -16 58 5 3 11 1 15 -4 9 -16 44 -9
37 8 -4 10 -1 12 8 6 9 -5 11 -4 6 4 -4 6 -12 9 -17 6 -5 -4 -9 -1 -9 6 0 10
-3 10 -12 1 -16 -16 -25 -15 -25 4 0 22 102 97 202 149 93 49 195 82 288 95
76 10 235 3 302 -15z m-799 -237 c-1 -7 -5 -19 -9 -25 -5 -7 -6 -17 -2 -22 3
-6 -4 -15 -15 -21 -16 -9 -20 -8 -20 6 0 14 -2 15 -17 3 -15 -12 -16 -12 -8 1
11 20 58 69 67 70 3 0 5 -6 4 -12z m44 -18 c0 -5 -2 -10 -4 -10 -3 0 -8 5 -11
10 -3 6 -1 10 4 10 6 0 11 -4 11 -10z m-50 -64 c0 -2 -7 -9 -15 -16 -13 -11
-14 -10 -9 4 5 14 24 23 24 12z m362 -573 c14 -16 40 -52 58 -82 42 -72 282
-552 278 -556 -2 -1 -68 -36 -148 -78 -147 -77 -286 -130 -372 -142 -42 -6
-48 -5 -48 10 0 10 11 104 25 209 46 349 99 580 146 640 26 32 29 32 61 -1z
m88 21 c0 -8 -19 -13 -24 -6 -3 5 1 9 9 9 8 0 15 -2 15 -3z m510 -74 c0 -5 -4
-10 -9 -10 -6 0 -13 5 -16 10 -3 6 1 10 9 10 9 0 16 -4 16 -10z m450 -113 c0
-10 -4 -16 -10 -12 -5 3 -7 12 -3 20 3 10 -1 15 -13 15 -16 0 -16 2 -4 10 16
10 30 -4 30 -33z"/>
<path d="M2380 6685 c-6 -8 -10 -19 -8 -24 1 -6 8 1 15 14 13 28 11 31 -7 10z"/>
<path d="M9541 5803 c-15 -13 -56 -130 -150 -428 -182 -577 -231 -728 -235
-733 -2 -2 -2 14 0 35 2 21 8 85 14 143 5 58 26 271 46 473 40 409 39 418 -20
436 -30 9 -406 40 -534 44 -50 1 -66 -3 -81 -18 -11 -11 -60 -128 -111 -260
-50 -132 -96 -253 -103 -269 -12 -27 -17 -15 -92 235 -43 145 -83 272 -89 281
-6 10 -22 22 -36 26 -28 10 -519 -21 -585 -37 -22 -5 -58 -7 -80 -5 -22 3
-152 13 -290 23 -260 19 -296 17 -315 -19 -13 -25 -14 -1509 0 -1544 18 -48
41 -54 260 -64 164 -8 211 -8 237 3 42 18 46 32 68 270 8 88 17 185 20 215 3
30 14 147 25 260 31 322 44 444 47 434 2 -8 49 -488 83 -849 23 -242 28 -276
43 -299 9 -13 27 -26 41 -28 29 -6 374 8 422 17 57 10 68 34 74 157 l5 110 40
-82 c43 -87 56 -100 105 -100 43 0 64 25 140 165 l65 120 5 -167 c4 -138 8
-170 22 -184 19 -19 122 -30 353 -38 83 -3 197 -10 255 -15 286 -29 353 -32
381 -21 30 13 39 34 79 188 l22 82 92 0 c50 0 108 -3 128 -6 l37 -6 31 -102
c18 -55 39 -109 48 -118 13 -15 33 -18 131 -18 64 0 193 5 286 10 167 9 170
10 194 37 30 34 28 44 -52 273 -141 401 -290 827 -375 1074 -54 154 -98 267
-111 279 -19 19 -37 22 -183 28 -281 13 -333 11 -357 -8z m365 -72 l122 -1 35
-97 c19 -54 45 -127 57 -163 12 -36 51 -150 87 -255 74 -219 75 -222 75 -252
0 -13 4 -23 9 -23 5 0 9 -6 9 -12 0 -7 -11 -1 -24 13 -16 19 -27 24 -37 18
-20 -12 -159 -11 -159 1 0 6 -31 10 -72 10 -81 0 -121 -8 -112 -21 3 -5 0 -9
-5 -9 -6 0 -11 5 -11 10 0 7 -7 7 -21 -1 -17 -9 -23 -8 -30 2 -7 11 -9 11 -9
1 0 -7 11 -24 25 -38 29 -29 31 -36 9 -27 -14 5 -15 3 -4 -17 7 -12 14 -35 17
-50 5 -32 -2 -35 -116 -46 l-74 -7 8 44 c4 24 8 69 9 100 2 53 1 56 -16 46
-10 -7 -18 -15 -18 -19 0 -5 -12 -8 -26 -8 -14 0 -23 4 -19 10 3 6 2 10 -4 10
-5 0 -11 -4 -13 -10 -2 -5 -52 -11 -116 -12 -79 -1 -116 -5 -123 -15 -16 -19
-30 -6 -20 20 5 12 19 58 31 102 12 44 31 105 41 135 10 30 36 116 59 190 23
74 57 182 75 240 18 58 36 114 39 125 5 19 11 20 103 14 54 -4 153 -7 219 -8z
m-1757 -128 c16 -54 42 -138 56 -188 15 -49 35 -115 45 -145 9 -30 25 -84 34
-120 10 -36 27 -96 40 -135 l23 -70 36 95 c20 52 66 174 102 270 37 96 85 223
107 282 l41 108 36 -5 c20 -3 104 -10 186 -15 275 -19 315 -23 315 -32 0 -5
-7 -73 -15 -151 -8 -78 -16 -164 -19 -192 -3 -27 -10 -97 -16 -155 -6 -58 -15
-139 -19 -180 -5 -41 -9 -66 -11 -55 -2 15 -4 12 -10 -10 l-8 -30 -1 29 c-1
25 -3 27 -17 16 -12 -11 -15 -11 -12 0 4 18 -17 23 -33 7 -8 -7 -39 -14 -69
-16 -30 -1 -56 -7 -58 -11 -2 -5 -12 -4 -23 3 -16 9 -21 9 -28 -1 -6 -10 -10
-10 -21 3 -11 13 -15 13 -21 3 -21 -32 20 -82 81 -98 55 -15 191 -15 200 1 11
17 23 -7 15 -31 -8 -26 -33 -32 -127 -32 -133 1 -202 36 -245 126 -18 36 -23
42 -19 21 5 -22 4 -26 -4 -15 -5 8 -10 24 -11 35 -1 11 -5 4 -9 -15 -5 -26 -8
-29 -9 -11 -1 19 -4 21 -15 12 -10 -9 -16 -8 -26 4 -16 20 -54 20 -47 1 3 -8
-1 -17 -10 -20 -10 -4 -13 -12 -8 -24 4 -12 1 -11 -15 6 -31 33 -36 27 -7 -11
14 -18 26 -42 28 -53 9 -59 -48 -137 -113 -155 -94 -25 -190 53 -176 142 2 13
9 23 16 22 6 -2 11 1 9 7 -3 14 75 81 90 76 7 -3 10 1 6 9 -3 8 -9 13 -13 10
-5 -3 -14 1 -22 8 -11 10 -16 10 -30 -5 -20 -20 -10 -25 12 -5 12 10 12 9 1
-5 -15 -20 -56 -24 -67 -7 -4 8 -9 8 -17 0 -14 -14 -117 -15 -117 -1 0 6 -7
10 -15 10 -8 0 -15 -4 -15 -10 0 -5 -9 -10 -20 -10 -14 0 -20 7 -21 23 -1 16
-2 18 -6 5 -5 -21 -19 -23 -26 -5 -5 11 -11 -18 -8 -36 1 -5 -3 -6 -8 -3 -5 4
-16 -2 -23 -11 -25 -34 -77 -53 -143 -53 -53 0 -68 4 -93 25 -16 13 -32 22
-36 18 -3 -3 -6 1 -6 10 0 19 -36 41 -51 31 -6 -3 -9 0 -8 7 2 8 0 30 -4 49
-4 19 -14 105 -22 190 -9 85 -20 193 -25 240 -6 47 -13 128 -16 181 l-7 96
149 12 c82 6 194 15 249 20 55 5 108 9 117 10 13 1 24 -22 47 -96z m-964 67
c224 -14 300 -23 299 -35 -1 -6 -5 -46 -8 -90 -3 -44 -10 -114 -15 -155 -5
-41 -9 -82 -9 -90 0 -8 -4 -49 -10 -90 -5 -41 -9 -84 -9 -95 1 -11 -4 -58 -11
-105 l-13 -85 -224 0 -223 0 -6 45 c-5 38 -9 473 -7 662 1 57 1 57 29 53 15
-2 108 -9 207 -15z m2168 -795 c-3 -9 -8 -14 -10 -11 -3 3 -2 9 2 15 9 16 15
13 8 -4z m-2296 -140 c11 -8 24 -26 27 -41 l7 -27 23 22 c29 28 51 27 83 -5
21 -21 29 -24 52 -16 31 11 74 -7 85 -34 4 -12 13 -14 32 -10 26 7 26 6 19
-36 -4 -24 -13 -46 -19 -51 -18 -12 -58 2 -79 29 -18 24 -20 24 -44 9 -28 -18
-55 -13 -83 17 -19 21 -20 21 -40 3 -31 -28 -71 -10 -90 41 -13 35 -18 40 -35
33 -35 -13 -45 -10 -45 16 0 18 10 31 33 45 38 24 46 24 74 5z m1908 -119 c38
-16 75 -68 75 -105 0 -106 -190 -173 -270 -96 -26 25 -30 36 -30 80 0 43 4 55
28 77 61 57 129 72 197 44z m-1038 -31 c63 -38 93 -105 93 -212 0 -64 -5 -93
-20 -123 -20 -39 -21 -40 -76 -40 l-55 0 35 31 c73 63 75 211 4 277 -51 49
-137 65 -190 38 -26 -14 -28 -13 -28 3 0 60 150 76 237 26z m-832 -53 c50 -19
131 -44 180 -56 86 -20 90 -23 93 -50 2 -16 -1 -33 -6 -38 -13 -13 -169 28
-299 79 l-113 45 0 34 c0 32 2 34 28 28 15 -4 68 -22 117 -42z m-47 -98 c12
-8 31 -33 42 -55 11 -21 22 -39 24 -39 1 0 17 7 34 15 33 17 74 12 93 -11 9
-11 24 -13 53 -9 58 8 67 -2 60 -59 l-7 -47 -21 20 c-19 17 -23 18 -40 5 -28
-20 -40 -18 -75 12 -24 20 -34 23 -50 15 -53 -29 -108 -2 -132 64 -11 30 -17
35 -46 35 -28 0 -33 4 -33 23 0 40 59 59 98 31z"/>
<path d="M7910 4905 c-7 -9 -8 -15 -2 -15 5 0 12 7 16 15 3 8 4 15 2 15 -2 0
-9 -7 -16 -15z"/>
<path d="M8416 4912 c-3 -5 8 -9 24 -9 16 0 27 4 24 9 -3 4 -14 8 -24 8 -10 0
-21 -4 -24 -8z"/>
<path d="M7793 4895 c-14 -15 54 -14 80 1 14 8 9 10 -26 10 -23 1 -48 -4 -54
-11z"/>
<path d="M8531 4894 c6 -7 16 -11 21 -8 11 7 3 17 -18 20 -12 2 -13 -1 -3 -12z"/>
<path d="M8364 4805 c-8 -11 -12 -13 -9 -5 4 8 -2 4 -13 -9 -20 -25 -20 -25 1
-53 16 -22 29 -28 56 -28 70 0 120 81 69 109 -33 17 -86 10 -104 -14z"/>
<path d="M8828 4563 c-15 -10 -35 -32 -45 -51 -18 -33 -18 -34 6 -53 28 -23
77 -24 131 -3 49 20 64 43 49 77 -21 46 -91 61 -141 30z"/>
<path d="M4324 5788 c-11 -13 -49 -113 -83 -223 -35 -110 -85 -267 -111 -350
-27 -82 -71 -222 -99 -310 -28 -88 -87 -272 -131 -410 -95 -295 -102 -331 -69
-361 25 -23 47 -26 383 -55 163 -14 171 -10 202 107 12 43 27 98 33 122 l12
42 92 0 c51 0 108 -3 127 -6 34 -6 35 -7 65 -102 16 -53 39 -107 51 -121 20
-24 27 -25 105 -23 233 7 468 21 482 28 9 5 63 6 119 2 57 -4 160 -8 230 -10
173 -4 164 -14 188 218 11 99 19 181 19 184 1 2 32 -45 69 -105 115 -186 179
-282 193 -291 8 -5 37 -8 64 -7 109 2 512 35 541 44 60 19 60 20 20 431 -37
374 -60 612 -91 938 -18 182 -27 214 -69 230 -22 8 -368 -4 -432 -15 -55 -9
-59 -22 -64 -209 l-5 -171 -63 162 c-35 90 -70 169 -78 178 -20 20 -44 23
-339 44 -171 12 -269 15 -286 9 -52 -18 -52 -19 -47 -694 3 -344 2 -622 -2
-617 -6 7 -42 103 -110 303 -13 36 -58 166 -102 290 -44 124 -108 308 -143
410 -96 281 -105 304 -125 324 -15 15 -41 20 -161 27 -79 4 -194 8 -255 8
-102 1 -112 -1 -130 -21z m375 -67 l115 -6 24 -60 c27 -70 76 -209 122 -350
18 -55 36 -104 40 -110 13 -19 73 -205 68 -210 -3 -3 -110 -6 -238 -8 l-233
-2 -21 62 c-12 34 -24 64 -27 68 -4 3 -12 -23 -19 -57 -6 -35 -13 -66 -15 -69
-4 -5 -187 11 -295 26 -70 10 -73 13 -54 71 27 84 35 101 47 102 7 0 32 2 57
2 42 2 80 22 80 42 0 5 -9 4 -21 -3 -19 -10 -20 -8 -14 10 5 18 1 22 -27 28
-18 4 -36 6 -40 5 -5 -1 -8 5 -8 14 0 8 5 12 10 9 6 -3 10 1 10 10 0 10 -5 13
-12 9 -7 -5 -8 -3 -2 7 4 8 9 19 10 24 9 50 75 267 115 373 8 21 13 22 111 21
57 -1 154 -4 217 -8z m966 -50 c72 -6 169 -13 217 -16 51 -4 88 -11 91 -18 29
-75 164 -426 182 -472 13 -33 33 -87 45 -120 12 -33 26 -68 32 -79 7 -13 6
-16 -2 -11 -9 5 -10 1 -5 -14 10 -33 -4 -25 -20 12 -8 17 -14 25 -15 16 0 -9
-7 -19 -14 -22 -10 -4 -13 -1 -9 9 4 10 -2 14 -20 14 -14 0 -27 -5 -29 -10 -2
-7 -41 -5 -113 4 -61 8 -157 17 -215 21 -58 4 -106 11 -108 16 -5 12 -82 12
-82 -1 0 -6 -33 -10 -79 -10 l-78 0 -7 38 c-3 20 -6 177 -6 349 l0 312 53 -5
c28 -2 111 -8 182 -13z m975 4 c0 -9 7 -82 15 -163 8 -81 19 -201 25 -267 6
-66 16 -157 21 -203 5 -46 7 -92 4 -103 -7 -20 -8 -20 -26 -3 -18 17 -20 16
-34 -2 -14 -18 -16 -18 -29 -2 -11 15 -18 16 -44 7 -32 -11 -186 -7 -237 6
-16 4 -33 13 -37 19 -4 6 -8 0 -8 -14 0 -20 -2 -22 -11 -10 -8 11 -12 12 -16
3 -2 -7 -9 -13 -14 -13 -6 0 -7 5 -4 10 4 6 6 172 5 370 l-1 360 23 1 c13 1
93 5 178 9 85 3 163 7 173 8 9 1 17 -5 17 -13z m-2340 -435 c0 -5 -4 -10 -10
-10 -5 0 -10 5 -10 10 0 6 5 10 10 10 6 0 10 -4 10 -10z m119 -377 l63 -6 -7
-44 -6 -43 44 0 c24 0 65 3 91 6 50 7 50 7 35 63 -6 21 462 28 480 7 11 -13
71 -181 71 -199 0 -4 -30 -6 -66 -3 -37 3 -205 6 -373 7 -168 0 -337 5 -376
10 -228 29 -311 42 -318 48 -4 4 4 38 16 77 21 60 27 70 53 75 40 9 218 10
293 2z m-214 -363 c132 -18 550 -23 695 -9 74 7 182 13 239 13 l103 1 34 -94
c19 -51 34 -97 34 -101 0 -4 -78 -10 -172 -14 -95 -3 -207 -9 -248 -12 l-75
-6 -23 70 -22 70 -168 7 c-92 3 -174 9 -183 11 -13 4 -21 -11 -36 -73 l-19
-78 -55 3 c-123 5 -369 53 -369 70 0 4 10 37 21 74 l21 67 52 4 c28 2 62 4 76
5 14 1 57 -3 95 -8z"/>
<path d="M4360 5200 c0 -5 5 -10 10 -10 6 0 10 5 10 10 0 6 -4 10 -10 10 -5 0
-10 -4 -10 -10z"/>
<path d="M10607 5801 c-175 -7 -181 -9 -191 -75 -11 -72 -15 -397 -5 -424 13
-39 35 -47 164 -62 61 -7 116 -14 123 -16 9 -3 12 -112 13 -501 1 -274 4 -509
8 -522 15 -53 40 -60 256 -69 210 -9 258 -4 275 28 10 19 23 138 76 690 15
157 29 287 31 289 1 2 55 -2 118 -9 l115 -13 0 -454 c0 -506 0 -507 63 -518
62 -11 411 -23 431 -15 50 19 54 33 81 305 14 143 45 465 70 716 52 526 53
539 25 564 -21 19 -142 33 -435 50 -94 6 -125 12 -144 26 -22 18 -48 19 -470
17 -245 -1 -517 -4 -604 -7z m1017 -193 c-7 -165 -25 -402 -30 -407 -2 -3 -44
1 -92 7 -155 21 -222 25 -222 14 0 -25 -21 -218 -25 -229 -5 -15 -32 -7 -38
10 -2 7 -3 3 -1 -8 3 -20 0 -20 -158 -11 -144 8 -163 7 -173 -8 -15 -20 -39
-21 -31 -1 4 11 -1 14 -16 11 -12 -1 -25 -11 -28 -21 -10 -27 -20 87 -20 216
0 94 -2 108 -17 113 -10 3 -78 12 -152 21 -74 8 -135 16 -136 18 -1 1 0 89 3
194 l5 192 136 4 c75 1 331 4 568 5 l433 2 -6 -122z m201 78 c50 -3 154 -12
233 -18 l142 -12 0 -29 c0 -16 -7 -97 -15 -181 -36 -363 -105 -1077 -110
-1141 -9 -96 -12 -105 -41 -105 l-24 0 5 93 c3 50 10 142 15 202 24 275 41
485 43 542 l2 62 -24 -15 c-19 -13 -25 -14 -32 -3 -7 11 -9 11 -9 1 0 -7 -4
-11 -9 -8 -5 3 -12 -18 -15 -47 -24 -196 -37 -354 -48 -569 l-12 -248 -59 0
-60 0 6 73 c14 155 29 650 22 705 -6 42 -10 52 -15 37 -7 -19 -8 -18 -12 5 -5
22 -5 21 -7 -7 0 -17 -5 -33 -11 -35 -10 -3 -24 -192 -40 -552 -5 -115 -13
-213 -18 -218 -5 -5 -21 -6 -35 -3 l-26 7 4 92 c25 486 27 661 5 676 -9 6 -23
694 -15 702 4 3 21 5 38 3 18 -1 73 -5 122 -9z"/>
<path d="M8022 3944 c-16 -31 5 -496 23 -510 14 -11 161 6 186 22 8 4 9 29 5
73 l-7 67 37 17 c20 10 39 16 41 13 3 -3 -5 -34 -17 -70 -29 -90 -25 -109 25
-118 22 -4 61 -7 87 -7 47 -1 47 0 59 39 11 36 16 40 44 40 28 0 33 -5 41 -32
l10 -33 94 -7 c52 -4 106 -7 119 -7 40 -1 144 18 154 28 6 6 7 33 1 73 l-9 62
55 28 c30 15 56 28 58 28 1 0 2 -39 2 -87 0 -49 4 -95 10 -103 7 -11 44 -16
162 -21 84 -4 156 -5 161 -2 5 3 61 4 125 3 563 -8 677 -8 696 3 12 6 29 10
39 8 10 -1 40 14 67 34 l50 37 0 -31 c0 -43 17 -48 185 -52 l140 -4 9 38 c9
33 13 37 42 37 28 0 34 -5 44 -35 l12 -36 96 3 c93 3 97 4 100 26 5 30 -146
463 -166 480 -21 16 -158 16 -169 0 -4 -7 -27 -69 -50 -138 -24 -69 -41 -114
-39 -100 3 14 8 66 12 116 8 109 9 108 -110 118 -84 6 -106 -1 -106 -35 0 -17
-3 -16 -35 6 -20 13 -58 28 -86 34 -66 14 -182 14 -197 -1 -8 -8 -15 -8 -26 1
-18 15 -293 5 -313 -11 -10 -8 -13 -54 -13 -168 l0 -158 -57 -5 c-32 -2 -59
-3 -61 -2 -2 2 3 70 11 152 8 81 12 154 10 161 -7 16 -30 21 -130 26 -45 2
-87 7 -93 11 -6 4 -76 3 -156 -1 -124 -6 -147 -9 -157 -25 -10 -17 -13 -16
-51 4 -32 16 -64 22 -149 25 -73 3 -112 0 -121 -7 -12 -10 -14 -42 -10 -164
l4 -152 -55 155 c-31 85 -61 158 -68 162 -7 4 -46 8 -88 8 -85 0 -76 7 -109
-84 l-11 -30 -19 32 c-34 55 -89 76 -217 80 -100 4 -112 2 -121 -14z m1981
-237 c-5 -85 -8 -97 -24 -97 -16 0 -19 10 -21 71 -3 75 -3 75 -58 97 -19 8
-12 9 32 5 48 -5 59 -3 64 11 12 31 14 10 7 -87z m-680 73 l27 0 0 -85 c0 -69
-3 -85 -15 -85 -12 0 -15 14 -15 64 0 80 -6 96 -35 96 -13 0 -27 5 -31 12 -5
8 0 9 17 5 13 -4 36 -7 52 -7z m1017 -162 l0 -41 -25 23 -26 24 23 18 c13 10
24 18 26 18 1 0 2 -19 2 -42z"/>
<path d="M6070 3914 c-101 -7 -343 -35 -510 -59 -429 -62 -814 -163 -1205
-316 -466 -182 -588 -212 -860 -211 -227 0 -429 43 -600 127 -162 80 -270 186
-270 265 0 32 -2 37 -13 27 -38 -31 32 -158 128 -232 191 -147 479 -234 775
-235 226 0 409 42 737 171 506 198 861 294 1353 363 673 95 1162 77 1450 -53
148 -68 296 -205 360 -334 81 -165 58 -356 -62 -520 -43 -59 -157 -151 -248
-202 -68 -38 -83 -51 -40 -35 141 54 304 189 375 313 93 160 93 344 0 505 -40
68 -148 183 -226 238 -111 79 -267 137 -459 170 -87 16 -545 27 -685 18z"/>
<path d="M2446 3285 c8 -50 14 -58 14 -19 0 16 -5 36 -11 44 -7 11 -8 4 -3
-25z"/>
</g>
</svg>
